<svg xmlns="http://www.w3.org/2000/svg" xmlns:xlink="http://www.w3.org/1999/xlink" version="1.1" x="0px" y="0px" viewBox="0 0 100 125" enable-background="new 0 0 100 100" xml:space="preserve"><g><path d="M95.662,24.23c-6.161-6.194-12.352-12.36-18.533-18.533c-0.561-0.56-0.693-0.605-1.525-0.418   c-1.224,0.274-1.19,1.356-1.432,2.341c-0.568,0.38-1.406-0.022-2.01,0.49c-0.592,0.513-0.521,1.232-0.762,1.9   c-0.604,0.339-1.4-0.11-2.039,0.38c-0.639,0.498-0.502,1.239-0.84,1.87c-0.364,0.162-0.932,0.021-1.328,0.088   c-0.559,0.093-0.996,0.424-1.207,0.952c-0.148,0.375-0.196,0.777-0.295,1.165c-0.075,0.301-0.82,0.204-1.082,0.24   c-1.316,0.179-1.448,1.164-1.666,2.265c-0.053,0.272-0.578,0.222-0.807,0.252c-0.564,0.076-1.123,0.248-1.455,0.746   c-0.252,0.381-0.309,0.84-0.363,1.282c-0.029,0.546-0.135,0.559-0.67,0.64c-1.107,0.165-1.746,0.681-1.842,1.846   c-0.041,0.479,0.092,0.743-0.426,0.865c-0.473,0.111-0.99,0.168-1.379,0.49c-0.656,0.545-0.564,1.474-0.564,2.239   c-0.488,0.367-1.215,0.243-1.713,0.679c-0.725,0.637-0.343,1.423-0.527,2.21c-0.842,0.42-1.883,0.197-2.231,1.327   c-0.125,0.404-0.116,0.841-0.149,1.259c-0.029,0.361-0.498,0.292-0.792,0.342c-1.281,0.219-1.624,1.028-1.747,2.222   c-0.375,0.728-1.496,0.366-2.07,0.91c-0.6,0.569-0.367,1.414-0.931,1.962c-0.206,0.199-0.907,0.109-1.204,0.201   c-0.581,0.181-0.914,0.668-1.078,1.229c-0.062,0.21-0.073,0.826-0.229,0.968c-0.467,0.126-0.987-0.01-1.465,0.104   c-1.149,0.273-0.965,1.307-1.395,2.126c-0.385,0.144-0.91,0.011-1.318,0.081c-0.671,0.115-1.111,0.55-1.294,1.195   c-0.099,0.345-0.058,1.058-0.48,1.095c-0.645,0.057-1.34,0.035-1.848,0.509c-0.446,0.413-0.495,1.036-0.585,1.599   c-0.095,0.589-0.599,0.423-1.114,0.52c-1.456,0.276-1.297,1.356-1.612,2.481c-0.355,0.269-1.064,0.169-1.482,0.344   c-0.685,0.287-0.912,0.966-0.969,1.652c-0.04,0.474,0.092,0.747-0.428,0.858c-0.558,0.117-1.181,0.21-1.569,0.676   c-0.359,0.441-0.37,1.02-0.37,1.561c-0.005,0.52-0.016,0.539-0.549,0.67c-0.606,0.148-1.246,0.356-1.524,0.976   c-0.257,0.569-0.054,1.155-0.166,1.735c-0.621,0.387-1.409,0.181-1.95,0.8c-0.527,0.606-0.179,1.334-0.451,1.979   c-0.558,0.284-1.231,0.125-1.781,0.512c-0.837,0.59-0.335,1.494-0.808,2.169c-0.554,0.411-1.413,0.038-1.99,0.6   c-0.572,0.546-0.45,1.269-0.659,1.95c-0.569,0.38-1.407-0.021-2.011,0.49c-0.578,0.502-0.542,1.234-0.76,1.899   c-0.715,0.39-1.561-0.194-2.228,0.558c-0.441,0.496-0.378,1.132-0.652,1.692c-0.869,0.318-1.836-0.223-2.423,0.808   c-0.184,0.322-0.23,0.681-0.317,1.033c-0.124,0.617-0.344,0.521-0.897,0.565c-1.387,0.117-1.633,0.907-1.894,2.094   c-0.34,0.686-1.643,1.188-1.479,1.353c6.165,6.158,12.325,12.322,18.487,18.484c0.008,0.008,0.016,0.016,0.023,0.022l-0.06,0.062   c0.02-0.012,0.05-0.031,0.079-0.041c0.573,0.572,0.717,0.623,1.567,0.437c1.281-0.282,1.172-1.347,1.463-2.347   c0.541-0.402,1.417,0.02,2.01-0.5c0.468-0.405,0.75-1.287,0.75-1.899c0.619-0.339,1.405,0.13,2.05-0.38   c0.612-0.477,0.567-1.223,0.84-1.87c0.784-0.298,1.627,0.188,2.279-0.599c0.271-0.326,0.365-0.748,0.451-1.151   c0.132-0.671,0.248-0.603,0.915-0.657c1.309-0.109,1.688-0.885,1.882-2.07c0.122-0.748,1.778-0.444,2.301-1.229   c0.253-0.38,0.317-0.839,0.364-1.282c0.063-0.533,0.13-0.559,0.68-0.64c1.265-0.163,1.8-0.851,1.849-2.101   c0.025-0.408-0.012-0.511,0.418-0.611c0.477-0.111,0.982-0.164,1.375-0.488c0.659-0.547,0.569-1.462,0.569-2.229   c0.441-0.389,1.225-0.262,1.708-0.687c0.701-0.616,0.373-1.424,0.531-2.205c0.394-0.28,1.065-0.216,1.508-0.458   c0.559-0.306,0.767-0.844,0.821-1.449c0.014-0.162-0.043-0.757,0.091-0.867c0.262-0.217,0.934-0.172,1.267-0.278   c1.313-0.427,0.743-1.642,1.494-2.354c0.321-0.307,0.87-0.193,1.284-0.341c0.578-0.204,0.886-0.72,1.017-1.292   c0.099-0.427,0.057-0.617,0.367-0.915c0.307-0.29,0.871-0.146,1.274-0.271c0.583-0.182,0.916-0.661,1.075-1.227   c0.063-0.222,0.064-0.828,0.23-0.977c0.174-0.154,0.96-0.027,1.174-0.048c0.607-0.063,1.076-0.396,1.322-0.953   c0.17-0.386,0.178-0.849,0.363-1.22c0.438-0.215,1.104,0.009,1.588-0.149c0.54-0.178,0.874-0.596,1.025-1.129   c0.101-0.354,0.045-1.054,0.478-1.099c1.351-0.142,2.177-0.381,2.399-1.873c0.084-0.556,0.078-0.616,0.641-0.681   c0.539-0.067,1.105-0.146,1.51-0.55c0.401-0.4,0.494-0.97,0.551-1.51c0.074-0.664,0.321-0.572,0.957-0.686   c1.553-0.277,1.313-1.348,1.603-2.536c0.299-0.261,0.952-0.222,1.319-0.368c0.527-0.21,0.854-0.659,0.951-1.213   c0.069-0.392,0.049-0.796,0.049-1.192c0-0.212,0.623-0.276,0.776-0.319c0.527-0.147,1.05-0.391,1.287-0.92   c0.255-0.562,0.063-1.152,0.177-1.727c0.586-0.419,1.418-0.177,1.951-0.81c0.518-0.598,0.193-1.321,0.449-1.97   c0.518-0.321,1.238-0.129,1.781-0.512c0.69-0.488,0.607-1.293,0.763-2.026c0.081-0.385,1.44-0.346,1.791-0.555   c0.808-0.481,0.677-1.367,0.903-2.137c0.582-0.384,1.408,0.028,2.012-0.5c0.468-0.406,0.75-1.288,0.75-1.9   c0.613-0.341,1.398,0.107,2.051-0.37c0.576-0.453,0.639-1.217,0.83-1.87c0.383-0.171,0.954-0.019,1.372-0.098   c0.54-0.103,0.959-0.431,1.161-0.943c0.091-0.228,0.217-0.562,0.217-0.809c0.127-0.617,0.329-0.523,0.895-0.567   c1.304-0.102,1.739-0.885,1.896-2.093C94.34,24.908,95.662,24.23,95.662,24.23L95.662,24.23z M92.643,26.09   c-0.572,0.383-1.406-0.026-2.01,0.5c-0.465,0.403-0.762,1.287-0.762,1.9c-0.611,0.339-1.406-0.113-2.049,0.38   c-0.641,0.498-0.502,1.24-0.84,1.87c-0.864,0.321-1.834-0.231-2.418,0.808c-0.201,0.359-0.263,0.771-0.351,1.167   c-0.11,0.499-0.392,0.395-0.856,0.432c-1.314,0.103-1.697,0.866-1.892,2.061c-0.12,0.739-1.547,0.434-2.106,0.992   c-0.574,0.576-0.239,1.982-1,2.113c-1.19,0.206-1.961,0.572-2.071,1.893c-0.021,0.245,0.077,0.713-0.197,0.803   c-0.466,0.152-0.966,0.168-1.401,0.414c-0.862,0.485-0.778,1.525-0.778,2.377c-0.535,0.471-1.392,0.234-1.897,0.89   c-0.429,0.558-0.33,1.338-0.33,2c-0.953,0.477-2.067,0.243-2.295,1.611c-0.062,0.372-0.027,0.761-0.105,1.129   c-0.196,0.232-0.982,0.201-1.276,0.295c-0.478,0.152-0.854,0.469-1.026,0.947c-0.148,0.408-0.035,0.991-0.347,1.296   c-0.597,0.583-1.556,0.191-2.106,0.985c-0.361,0.521-0.186,1.521-0.821,1.807c-1.192,0.115-1.985,0.338-2.287,1.622   c-0.239,1.015-0.291,0.67-1.331,0.78c-1.376,0.145-1.234,1.221-1.702,2.178c-0.38,0.145-0.911,0.014-1.313,0.081   c-0.674,0.115-1.104,0.546-1.293,1.19c-0.131,0.451-0.024,1.063-0.571,1.098c-0.612,0.039-1.271,0.061-1.753,0.501   c-0.441,0.409-0.503,1.037-0.583,1.599c-0.083,0.582-0.604,0.42-1.106,0.517c-0.688,0.132-1.217,0.522-1.418,1.212   c-0.088,0.3-0.022,1.249-0.35,1.33c-0.536,0.134-1.118,0.109-1.594,0.43c-0.589,0.395-0.689,1.114-0.729,1.766   c-0.041,0.641-0.268,0.57-0.878,0.711c-0.623,0.146-1.164,0.437-1.37,1.082c-0.134,0.422-0.112,0.871-0.112,1.307   c0,0.427-0.406,0.38-0.776,0.482c-0.64,0.18-1.227,0.516-1.388,1.213c-0.109,0.471,0.02,0.969-0.076,1.435   c-0.581,0.42-1.407,0.166-1.94,0.8c-0.487,0.564-0.322,1.301-0.451,1.971c-0.63,0.385-1.41,0.096-2,0.699   c-0.563,0.579-0.192,1.414-0.589,1.98c-0.55,0.412-1.41,0.049-1.99,0.6c-0.471,0.449-0.66,1.323-0.66,1.96   c-0.573,0.38-1.41-0.032-2.01,0.49c-0.593,0.513-0.532,1.238-0.771,1.91c-0.612,0.338-1.411-0.116-2.049,0.38   c-0.629,0.494-0.508,1.236-0.84,1.87c-0.956,0.36-2.017-0.239-2.524,1.034c-0.141,0.355-0.191,0.736-0.28,1.106   c-0.091,0.382-1.028,0.265-1.357,0.343c-0.621,0.146-1.047,0.561-1.21,1.178c-0.041,0.154-0.105,1.188-0.289,1.188   c-0.036,0.002-0.258-0.259-0.287-0.287c-1.419-1.421-2.839-2.841-4.258-4.262c-4.031-4.031-8.062-8.064-12.093-12.1   c-0.216-0.215-0.432-0.432-0.647-0.646C6.81,75.489,6.733,75.434,6.73,75.41c0.539-0.539,0.485-1.27,0.66-1.95   c0.571-0.379,1.406,0.022,2.01-0.489c0.469-0.406,0.76-1.291,0.76-1.91c0.609-0.341,1.405,0.114,2.05-0.381   c0.612-0.477,0.563-1.223,0.84-1.869c0.382-0.146,0.912-0.006,1.316-0.078c0.669-0.116,1.101-0.547,1.289-1.188   c0.072-0.247,0.087-1.044,0.38-1.085c0.582-0.081,1.175-0.021,1.704-0.333c0.563-0.332,0.704-0.943,0.781-1.546   c0.104-0.688,0.226-0.622,0.888-0.708c1.601-0.208,1.556-1.254,1.873-2.521c0.323-0.279,1.085-0.188,1.483-0.354   c0.682-0.285,0.925-0.956,0.974-1.644c0.047-0.676-0.004-0.754,0.662-0.924c0.597-0.115,1.198-0.294,1.5-0.873   c0.244-0.47,0.207-0.996,0.21-1.507c0.003-0.53,0.59-0.467,1.025-0.61c1.224-0.403,1.215-1.478,1.215-2.568   c0.809-0.503,1.863-0.151,2.228-1.326c0.126-0.406,0.118-0.844,0.15-1.265c0.027-0.357,0.489-0.278,0.78-0.327   c1.291-0.218,1.624-1.031,1.741-2.232c0.375-0.726,1.499-0.345,2.069-0.9c0.561-0.533,0.299-1.708,1-2.03   c1.189-0.115,2.008-0.317,2.292-1.617c0.034-0.157,0.048-0.607,0.16-0.713c0.397-0.198,1.032-0.004,1.471-0.113   c1.011-0.252,1.177-1.265,1.4-2.126c0.369-0.164,0.925-0.011,1.322-0.079c0.667-0.114,1.107-0.557,1.29-1.197   c0.073-0.258,0.078-1.041,0.381-1.081c0.58-0.078,1.181-0.027,1.707-0.337c0.566-0.334,0.693-0.944,0.781-1.546   c0.103-0.688,0.228-0.623,0.888-0.708c1.616-0.208,1.534-1.258,1.873-2.521c0.321-0.28,1.085-0.187,1.483-0.354   c0.687-0.288,0.916-0.956,0.97-1.643c0.063-0.801,0.124-0.8,0.9-0.972c0.627-0.138,1.168-0.44,1.373-1.086   c0.134-0.417,0.113-0.863,0.113-1.296c0-0.474,0.625-0.431,1.014-0.561c1.219-0.405,1.216-1.481,1.216-2.569   c0.625-0.394,1.399-0.184,1.95-0.81c0.52-0.6,0.186-1.325,0.451-1.97c0.664-0.333,1.418-0.094,2-0.69   c0.559-0.588,0.209-1.393,0.58-1.99c0.59-0.395,1.414-0.029,2-0.6c0.576-0.551,0.438-1.269,0.658-1.95   c0.578-0.379,1.405,0.028,2.012-0.5c0.563-0.487,0.592-1.242,0.771-1.91c0.629-0.314,1.397,0.13,2.039-0.37   c0.585-0.442,0.651-1.219,0.842-1.87c0.461-0.205,1.123,0.01,1.621-0.159c0.903-0.308,0.995-1.184,1.183-1.987   c0.088-0.38,1.729-0.362,2.137-0.734c0.553-0.497,0.269-1.531,0.852-1.88l17.279,17.28C92.789,24.13,92.752,25.757,92.643,26.09   C92.553,26.15,92.652,26.06,92.643,26.09z"/><path d="M88.691,22.756c-2.945,2.945-6.187,5.432-9.355,8.11c-3.652,3.087-7.059,6.556-10.049,10.29   c-2.83,3.533-5.746,6.891-9.053,10.001c-2.815,2.649-5.979,4.873-8.844,7.464c-3.307,2.992-6.385,6.234-9.146,9.736   c-1.812,2.299-3.692,4.406-5.778,6.442c-1.664,1.624-3.327,3.248-4.991,4.872c-1.359,1.327-3.005,2.398-4.471,3.61   c-1.803,1.489-3.508,3.094-5.161,4.747l1.061,1.061c2.947-2.947,6.19-5.436,9.361-8.115c3.654-3.09,7.063-6.56,10.054-10.295   c2.831-3.533,5.749-6.895,9.055-10.005c2.816-2.649,5.979-4.873,8.844-7.464c3.307-2.99,6.385-6.233,9.145-9.735   c1.81-2.297,3.691-4.405,5.775-6.441c1.662-1.623,3.324-3.246,4.986-4.869c1.357-1.326,3.004-2.398,4.468-3.607   c1.804-1.489,3.507-3.091,5.157-4.744L88.691,22.756C85.42,26.027,88.691,22.756,88.691,22.756z"/><path d="M31.107,57.542c2.918-3.707,6.154-7.152,9.688-10.281c2.92-2.586,6.084-4.847,8.908-7.551   c3.363-3.222,6.25-6.719,9.197-10.304c1.834-2.232,3.918-4.18,5.982-6.196c1.477-1.44,2.905-2.912,4.512-4.207   c2.875-2.319,5.678-4.632,8.295-7.249l-1.063-1.061c-2.947,2.947-6.189,5.436-9.361,8.117c-3.654,3.089-7.063,6.559-10.054,10.294   c-2.831,3.534-5.749,6.894-9.056,10.004c-2.816,2.649-5.979,4.873-8.843,7.464c-3.307,2.991-6.385,6.232-9.143,9.736   c-1.81,2.297-3.692,4.403-5.777,6.439c-1.662,1.623-3.324,3.246-4.986,4.869c-1.358,1.326-3.004,2.398-4.468,3.607   c-1.802,1.488-3.506,3.092-5.158,4.743l1.061,1.062c3.115-3.114,6.584-5.703,9.9-8.576C24.541,65.162,28.002,61.489,31.107,57.542   C32.524,55.742,29.665,59.376,31.107,57.542z"/></g></svg>